<svg width="817" height="279" viewBox="0 0 817 279" fill="none" xmlns="http://www.w3.org/2000/svg">
<path d="M5.9 74V1.1H21.5V74H5.9ZM34.6945 74V20.4H48.8945L49.3945 30.1H49.9945C51.3945 26.5 53.5612 23.8333 56.4945 22.1C59.4945 20.3 62.7945 19.4 66.3945 19.4C70.1279 19.4 73.5279 20.3 76.5945 22.1C79.7279 23.9 81.9945 27 83.3945 31.4H84.1945C85.5279 27.4 87.7945 24.4 90.9945 22.4C94.1945 20.4 97.8279 19.4 101.895 19.4C105.361 19.4 108.461 20.1333 111.195 21.6C113.995 23.0667 116.195 25.4333 117.795 28.7C119.395 31.9 120.195 36.2 120.195 41.6V74H105.495V44.8C105.495 41.8 105.161 39.3 104.495 37.3C103.895 35.3 102.861 33.8333 101.395 32.9C99.9945 31.9 98.1945 31.4 95.9945 31.4C93.5945 31.4 91.5612 32 89.8945 33.2C88.2279 34.4 86.9612 35.9667 86.0945 37.9C85.2279 39.8333 84.7945 41.9333 84.7945 44.2V74H70.0945V44.8C70.0945 41.8 69.7612 39.3 69.0945 37.3C68.4279 35.3 67.3945 33.8333 65.9945 32.9C64.5945 31.9 62.7945 31.4 60.5945 31.4C58.1945 31.4 56.1612 32 54.4945 33.2C52.8279 34.4 51.5612 35.9667 50.6945 37.9C49.8279 39.8333 49.3945 41.9333 49.3945 44.2V74H34.6945ZM131.863 90.7V20.4H145.863L146.363 29.5H147.163C148.296 26.5 150.329 24.0667 153.263 22.2C156.263 20.3333 159.763 19.4 163.763 19.4C167.096 19.4 170.096 20.0333 172.763 21.3C175.429 22.5667 177.729 24.4 179.663 26.8C181.596 29.1333 183.063 32.0333 184.063 35.5C185.129 38.9 185.663 42.8 185.663 47.2C185.663 53 184.729 58 182.863 62.2C181.063 66.3333 178.529 69.5 175.263 71.7C171.996 73.9 168.163 75 163.763 75C161.096 75 158.629 74.6 156.363 73.8C154.163 72.9333 152.263 71.7333 150.663 70.2C149.063 68.6667 147.896 66.9333 147.163 65H146.563V90.7H131.863ZM158.163 63.1C160.896 63.1 163.196 62.4667 165.063 61.2C166.929 59.8667 168.296 58 169.163 55.6C170.096 53.2 170.563 50.4 170.563 47.2C170.563 43.9333 170.129 41.1333 169.263 38.8C168.396 36.4 167.063 34.5667 165.263 33.3C163.463 31.9667 161.196 31.3 158.463 31.3C155.863 31.3 153.663 31.9 151.863 33.1C150.063 34.2333 148.729 35.8 147.863 37.8C146.996 39.8 146.563 42.0667 146.563 44.6V49.9C146.563 52.5 147.029 54.8 147.963 56.8C148.896 58.7333 150.229 60.2667 151.962 61.4C153.696 62.5333 155.763 63.1 158.163 63.1ZM195.437 74V20.4H208.737L209.337 29H209.837C211.037 25.5333 212.937 23.1333 215.537 21.8C218.203 20.4 221.237 19.7 224.637 19.7C225.237 19.7 225.77 19.7 226.237 19.7C226.703 19.7 227.17 19.7 227.637 19.7V33.5C227.303 33.5 226.837 33.5 226.237 33.5C225.637 33.5 225.003 33.5 224.337 33.5C221.07 33.5 218.403 34 216.337 35C214.27 35.9333 212.737 37.3333 211.737 39.2C210.737 41.0667 210.203 43.3333 210.137 46V74H195.437ZM258.79 74.9C254.723 74.9 251.057 74.3 247.79 73.1C244.523 71.8333 241.69 70 239.29 67.6C236.89 65.2 235.057 62.3 233.79 58.9C232.523 55.4333 231.89 51.5333 231.89 47.2C231.89 41.6667 232.957 36.8333 235.09 32.7C237.223 28.5 240.29 25.2333 244.29 22.9C248.29 20.5667 253.123 19.4 258.79 19.4C262.79 19.4 266.423 20.0333 269.69 21.3C272.957 22.5667 275.757 24.4 278.09 26.8C280.49 29.2 282.323 32.1 283.59 35.5C284.923 38.9 285.59 42.8 285.59 47.2C285.59 52.6667 284.523 57.5 282.39 61.7C280.257 65.8333 277.19 69.0667 273.19 71.4C269.257 73.7333 264.457 74.9 258.79 74.9ZM258.69 63C261.09 63 263.19 62.4333 264.99 61.3C266.857 60.1 268.257 58.3333 269.19 56C270.19 53.6667 270.69 50.7333 270.69 47.2C270.69 44.5333 270.423 42.2333 269.89 40.3C269.357 38.3 268.557 36.6333 267.49 35.3C266.423 33.9667 265.157 33 263.69 32.4C262.223 31.7333 260.59 31.4 258.79 31.4C256.39 31.4 254.257 31.9667 252.39 33.1C250.59 34.2333 249.19 35.9667 248.19 38.3C247.19 40.6333 246.69 43.6 246.69 47.2C246.69 49.8667 246.957 52.2 247.49 54.2C248.09 56.1333 248.923 57.7667 249.99 59.1C251.057 60.3667 252.323 61.3333 253.79 62C255.257 62.6667 256.89 63 258.69 63ZM307.272 74L288.972 20.4H304.772L313.072 51.1L316.072 62.8H316.672L319.672 51.1L327.972 20.4H343.872L325.572 74H307.272ZM351.491 74V20.4H366.191V74H351.491ZM358.791 14.1C356.525 14.1 354.658 13.5 353.191 12.3C351.725 11.1 350.991 9.43333 350.991 7.29999C350.991 5.09999 351.725 3.4 353.191 2.19999C354.658 0.999994 356.525 0.399994 358.791 0.399994C361.125 0.399994 363.025 0.999994 364.491 2.19999C365.958 3.4 366.691 5.09999 366.691 7.29999C366.691 9.43333 365.958 11.1 364.491 12.3C363.025 13.5 361.125 14.1 358.791 14.1ZM378.835 74V20.4H392.935L393.535 30.1H394.135C395.602 26.5 397.868 23.8333 400.935 22.1C404.002 20.3 407.435 19.4 411.235 19.4C413.902 19.4 416.368 19.8333 418.635 20.7C420.968 21.5 422.968 22.7667 424.635 24.5C426.368 26.2333 427.702 28.5333 428.635 31.4C429.635 34.2 430.135 37.6 430.135 41.6V74H415.435V44.8C415.435 41.8 415.068 39.3 414.335 37.3C413.668 35.3 412.602 33.8333 411.135 32.9C409.668 31.9 407.735 31.4 405.335 31.4C402.802 31.4 400.668 32 398.935 33.2C397.202 34.4 395.868 35.9667 394.935 37.9C394.002 39.8333 393.535 41.9333 393.535 44.2V74H378.835ZM464.607 91.7C459.874 91.7 455.807 91 452.407 89.6C449.007 88.2667 446.34 86.3667 444.407 83.9C442.474 81.5 441.374 78.6667 441.107 75.4H455.207C455.474 76.5333 456.007 77.5333 456.807 78.4C457.674 79.3333 458.774 80.0333 460.107 80.5C461.507 81.0333 463.107 81.3 464.907 81.3C467.907 81.3 470.274 80.8667 472.007 80C473.74 79.2 475.007 77.9667 475.807 76.3C476.607 74.7 477.007 72.7333 477.007 70.4V62.4H476.307C475.24 65.0667 473.274 67.2667 470.407 69C467.607 70.7333 464.307 71.6 460.507 71.6C457.374 71.6 454.54 71 452.007 69.8C449.474 68.6 447.274 66.9 445.407 64.7C443.607 62.4333 442.207 59.7 441.207 56.5C440.207 53.3 439.707 49.6333 439.707 45.5C439.707 40.0333 440.574 35.3667 442.307 31.5C444.04 27.5667 446.474 24.5667 449.607 22.5C452.74 20.4333 456.374 19.4 460.507 19.4C464.174 19.4 467.44 20.2 470.307 21.8C473.174 23.4 475.174 25.6333 476.307 28.5H477.107L477.507 20.4H491.707V67.6C491.707 73.4667 490.574 78.1667 488.307 81.7C486.107 85.2333 482.974 87.7667 478.907 89.3C474.84 90.9 470.074 91.7 464.607 91.7ZM466.007 59.7C468.407 59.7 470.407 59.1667 472.007 58.1C473.607 57.0333 474.807 55.6333 475.607 53.9C476.474 52.1 476.907 50.1 476.907 47.9V43.1C476.907 40.7 476.474 38.6333 475.607 36.9C474.74 35.1 473.507 33.7 471.907 32.7C470.374 31.7 468.507 31.2 466.307 31.2C463.707 31.2 461.54 31.8 459.807 33C458.14 34.2 456.874 35.8667 456.007 38C455.14 40.1333 454.707 42.6333 454.707 45.5C454.707 48.3667 455.107 50.8667 455.907 53C456.707 55.0667 457.94 56.7 459.607 57.9C461.274 59.1 463.407 59.7 466.007 59.7ZM555.915 74.9C549.382 74.9 543.782 73.7333 539.115 71.4C534.515 69.0667 530.982 65.7667 528.515 61.5C526.115 57.1667 524.915 52.1 524.915 46.3V1.1H540.415V46.2C540.415 49.4667 541.048 52.2333 542.315 54.5C543.582 56.7 545.348 58.3667 547.615 59.5C549.948 60.5667 552.748 61.1 556.015 61.1C559.482 61.1 562.348 60.5333 564.615 59.4C566.948 58.2 568.682 56.5 569.815 54.3C571.015 52.0333 571.615 49.3333 571.615 46.2V1.1H587.115V46.3C587.115 52.3 585.848 57.4333 583.315 61.7C580.782 65.9667 577.182 69.2333 572.515 71.5C567.848 73.7667 562.315 74.9 555.915 74.9ZM600.041 74V1.1H615.641V74H600.041ZM621.535 82.2L651.335 1.1H665.435L635.535 82.2H621.535ZM704.352 74.9C697.819 74.9 692.219 73.7333 687.552 71.4C682.952 69.0667 679.419 65.7667 676.952 61.5C674.552 57.1667 673.352 52.1 673.352 46.3V1.1H688.852V46.2C688.852 49.4667 689.486 52.2333 690.752 54.5C692.019 56.7 693.786 58.3667 696.052 59.5C698.386 60.5667 701.186 61.1 704.452 61.1C707.919 61.1 710.786 60.5333 713.052 59.4C715.386 58.2 717.119 56.5 718.252 54.3C719.452 52.0333 720.052 49.3333 720.052 46.2V1.1H735.552V46.3C735.552 52.3 734.286 57.4333 731.752 61.7C729.219 65.9667 725.619 69.2333 720.952 71.5C716.286 73.7667 710.752 74.9 704.352 74.9ZM741.904 74L768.504 35L744.804 1.1H763.104L773.504 18.1L778.204 26H778.904L783.604 18.1L794.104 1.1H812.404L789.004 34.9L815.604 74H797.104L783.904 53.2L778.904 45.1H778.204L773.304 53.2L760.004 74H741.904ZM23.9 168C19.3 168 15.9 166.933 13.7 164.8C11.5 162.6 10.4 159.133 10.4 154.4V126.2H0.8V114.4H10.4V99.8L25.1 98.4V114.4H35.9V126.2H25.1V151.7C25.1 153.367 25.5 154.5 26.3 155.1C27.1 155.7 28.2333 156 29.7 156H35.9V168H23.9ZM45.7297 168V95.1H60.4297V124.1H61.0297C62.4964 120.5 64.763 117.833 67.8297 116.1C70.8964 114.3 74.3297 113.4 78.1297 113.4C80.7964 113.4 83.263 113.833 85.5297 114.7C87.863 115.5 89.863 116.767 91.5297 118.5C93.263 120.233 94.5964 122.533 95.5297 125.4C96.5297 128.2 97.0297 131.6 97.0297 135.6V168H82.3297V138.8C82.3297 135.8 81.963 133.3 81.2297 131.3C80.563 129.3 79.4964 127.833 78.0297 126.9C76.563 125.9 74.6297 125.4 72.2297 125.4C69.6964 125.4 67.563 126 65.8297 127.2C64.0964 128.4 62.763 129.967 61.8297 131.9C60.8964 133.833 60.4297 135.933 60.4297 138.2V168H45.7297ZM108.718 168V114.4H122.018L122.618 123H123.118C124.318 119.533 126.218 117.133 128.818 115.8C131.485 114.4 134.518 113.7 137.918 113.7C138.518 113.7 139.051 113.7 139.518 113.7C139.985 113.7 140.451 113.7 140.918 113.7V127.5C140.585 127.5 140.118 127.5 139.518 127.5C138.918 127.5 138.285 127.5 137.618 127.5C134.351 127.5 131.685 128 129.618 129C127.551 129.933 126.018 131.333 125.018 133.2C124.018 135.067 123.485 137.333 123.418 140V168H108.718ZM172.071 168.9C168.004 168.9 164.338 168.3 161.071 167.1C157.804 165.833 154.971 164 152.571 161.6C150.171 159.2 148.338 156.3 147.071 152.9C145.804 149.433 145.171 145.533 145.171 141.2C145.171 135.667 146.238 130.833 148.371 126.7C150.504 122.5 153.571 119.233 157.571 116.9C161.571 114.567 166.404 113.4 172.071 113.4C176.071 113.4 179.704 114.033 182.971 115.3C186.238 116.567 189.038 118.4 191.371 120.8C193.771 123.2 195.604 126.1 196.871 129.5C198.204 132.9 198.871 136.8 198.871 141.2C198.871 146.667 197.804 151.5 195.671 155.7C193.538 159.833 190.471 163.067 186.471 165.4C182.538 167.733 177.738 168.9 172.071 168.9ZM171.971 157C174.371 157 176.471 156.433 178.271 155.3C180.138 154.1 181.538 152.333 182.471 150C183.471 147.667 183.971 144.733 183.971 141.2C183.971 138.533 183.704 136.233 183.171 134.3C182.638 132.3 181.838 130.633 180.771 129.3C179.704 127.967 178.438 127 176.971 126.4C175.504 125.733 173.871 125.4 172.071 125.4C169.671 125.4 167.538 125.967 165.671 127.1C163.871 128.233 162.471 129.967 161.471 132.3C160.471 134.633 159.971 137.6 159.971 141.2C159.971 143.867 160.238 146.2 160.771 148.2C161.371 150.133 162.204 151.767 163.271 153.1C164.338 154.367 165.604 155.333 167.071 156C168.538 156.667 170.171 157 171.971 157ZM227.406 168.9C223.34 168.9 219.873 168.1 217.006 166.5C214.14 164.9 211.973 162.533 210.506 159.4C209.04 156.2 208.306 152.333 208.306 147.8V114.4H223.006V143.9C223.006 146.7 223.34 149.067 224.006 151C224.74 152.933 225.84 154.433 227.306 155.5C228.84 156.5 230.806 157 233.206 157C235.673 157 237.773 156.4 239.506 155.2C241.24 154 242.573 152.433 243.506 150.5C244.44 148.5 244.906 146.333 244.906 144V114.4H259.606V168H245.506L244.906 158.2H244.306C242.973 161.667 240.773 164.333 237.706 166.2C234.706 168 231.273 168.9 227.406 168.9ZM294.295 185.7C289.561 185.7 285.495 185 282.095 183.6C278.695 182.267 276.028 180.367 274.095 177.9C272.161 175.5 271.061 172.667 270.795 169.4H284.895C285.161 170.533 285.695 171.533 286.495 172.4C287.361 173.333 288.461 174.033 289.795 174.5C291.195 175.033 292.795 175.3 294.595 175.3C297.595 175.3 299.961 174.867 301.695 174C303.428 173.2 304.695 171.967 305.495 170.3C306.295 168.7 306.695 166.733 306.695 164.4V156.4H305.995C304.928 159.067 302.961 161.267 300.095 163C297.295 164.733 293.995 165.6 290.195 165.6C287.061 165.6 284.228 165 281.695 163.8C279.161 162.6 276.961 160.9 275.095 158.7C273.295 156.433 271.895 153.7 270.895 150.5C269.895 147.3 269.395 143.633 269.395 139.5C269.395 134.033 270.261 129.367 271.995 125.5C273.728 121.567 276.161 118.567 279.295 116.5C282.428 114.433 286.061 113.4 290.195 113.4C293.861 113.4 297.128 114.2 299.995 115.8C302.861 117.4 304.861 119.633 305.995 122.5H306.795L307.195 114.4H321.395V161.6C321.395 167.467 320.261 172.167 317.995 175.7C315.795 179.233 312.661 181.767 308.595 183.3C304.528 184.9 299.761 185.7 294.295 185.7ZM295.695 153.7C298.095 153.7 300.095 153.167 301.695 152.1C303.295 151.033 304.495 149.633 305.295 147.9C306.161 146.1 306.595 144.1 306.595 141.9V137.1C306.595 134.7 306.161 132.633 305.295 130.9C304.428 129.1 303.195 127.7 301.595 126.7C300.061 125.7 298.195 125.2 295.995 125.2C293.395 125.2 291.228 125.8 289.495 127C287.828 128.2 286.561 129.867 285.695 132C284.828 134.133 284.395 136.633 284.395 139.5C284.395 142.367 284.795 144.867 285.595 147C286.395 149.067 287.628 150.7 289.295 151.9C290.961 153.1 293.095 153.7 295.695 153.7ZM333.913 168V95.1H348.613V124.1H349.213C350.68 120.5 352.947 117.833 356.013 116.1C359.08 114.3 362.513 113.4 366.313 113.4C368.98 113.4 371.447 113.833 373.713 114.7C376.047 115.5 378.047 116.767 379.713 118.5C381.447 120.233 382.78 122.533 383.713 125.4C384.713 128.2 385.213 131.6 385.213 135.6V168H370.513V138.8C370.513 135.8 370.147 133.3 369.413 131.3C368.747 129.3 367.68 127.833 366.213 126.9C364.747 125.9 362.813 125.4 360.413 125.4C357.88 125.4 355.747 126 354.013 127.2C352.28 128.4 350.947 129.967 350.013 131.9C349.08 133.833 348.613 135.933 348.613 138.2V168H333.913ZM436.791 168C432.191 168 428.791 166.933 426.591 164.8C424.391 162.6 423.291 159.133 423.291 154.4V126.2H413.691V114.4H423.291V99.8L437.991 98.4V114.4H448.791V126.2H437.991V151.7C437.991 153.367 438.391 154.5 439.191 155.1C439.991 155.7 441.124 156 442.591 156H448.791V168H436.791ZM458.62 168V114.4H471.92L472.52 123H473.02C474.22 119.533 476.12 117.133 478.72 115.8C481.387 114.4 484.42 113.7 487.82 113.7C488.42 113.7 488.954 113.7 489.42 113.7C489.887 113.7 490.354 113.7 490.82 113.7V127.5C490.487 127.5 490.02 127.5 489.42 127.5C488.82 127.5 488.187 127.5 487.52 127.5C484.254 127.5 481.587 128 479.52 129C477.454 129.933 475.92 131.333 474.92 133.2C473.92 135.067 473.387 137.333 473.32 140V168H458.62ZM499.148 168V114.4H513.848V168H499.148ZM506.448 108.1C504.181 108.1 502.314 107.5 500.848 106.3C499.381 105.1 498.648 103.433 498.648 101.3C498.648 99.1 499.381 97.4 500.848 96.2C502.314 95 504.181 94.4 506.448 94.4C508.781 94.4 510.681 95 512.148 96.2C513.614 97.4 514.348 99.1 514.348 101.3C514.348 103.433 513.614 105.1 512.148 106.3C510.681 107.5 508.781 108.1 506.448 108.1ZM545.591 168.9C542.325 168.9 539.358 168.3 536.691 167.1C534.025 165.833 531.725 164.033 529.791 161.7C527.858 159.3 526.358 156.367 525.291 152.9C524.291 149.433 523.791 145.533 523.791 141.2C523.791 135.333 524.691 130.333 526.491 126.2C528.358 122 530.925 118.833 534.191 116.7C537.458 114.5 541.258 113.4 545.591 113.4C548.325 113.4 550.791 113.833 552.991 114.7C555.191 115.5 557.091 116.667 558.691 118.2C560.291 119.667 561.458 121.4 562.191 123.4H562.991L563.591 114.4H577.491V168H563.591L562.991 158.9H562.191C561.125 161.9 559.091 164.333 556.091 166.2C553.158 168 549.658 168.9 545.591 168.9ZM550.891 157C553.558 157 555.758 156.433 557.491 155.3C559.291 154.167 560.625 152.6 561.491 150.6C562.358 148.6 562.791 146.333 562.791 143.8V138.5C562.791 135.9 562.325 133.633 561.391 131.7C560.525 129.7 559.191 128.133 557.391 127C555.658 125.867 553.625 125.3 551.291 125.3C548.491 125.3 546.158 125.933 544.291 127.2C542.491 128.467 541.125 130.3 540.191 132.7C539.258 135.033 538.791 137.867 538.791 141.2C538.791 144.4 539.225 147.2 540.091 149.6C540.958 152 542.291 153.833 544.091 155.1C545.891 156.367 548.158 157 550.891 157ZM590.066 168V95.1H604.766V168H590.066ZM657.798 168.9C654.532 168.9 651.565 168.3 648.898 167.1C646.232 165.833 643.932 164.033 641.998 161.7C640.065 159.3 638.565 156.367 637.498 152.9C636.498 149.433 635.998 145.533 635.998 141.2C635.998 135.333 636.898 130.333 638.698 126.2C640.565 122 643.132 118.833 646.398 116.7C649.665 114.5 653.465 113.4 657.798 113.4C660.532 113.4 662.998 113.833 665.198 114.7C667.398 115.5 669.298 116.667 670.898 118.2C672.498 119.667 673.665 121.4 674.398 123.4H675.198L675.798 114.4H689.698V168H675.798L675.198 158.9H674.398C673.332 161.9 671.298 164.333 668.298 166.2C665.365 168 661.865 168.9 657.798 168.9ZM663.098 157C665.765 157 667.965 156.433 669.698 155.3C671.498 154.167 672.832 152.6 673.698 150.6C674.565 148.6 674.998 146.333 674.998 143.8V138.5C674.998 135.9 674.532 133.633 673.598 131.7C672.732 129.7 671.398 128.133 669.598 127C667.865 125.867 665.832 125.3 663.498 125.3C660.698 125.3 658.365 125.933 656.498 127.2C654.698 128.467 653.332 130.3 652.398 132.7C651.465 135.033 650.998 137.867 650.998 141.2C650.998 144.4 651.432 147.2 652.298 149.6C653.165 152 654.498 153.833 656.298 155.1C658.098 156.367 660.365 157 663.098 157ZM702.273 168V114.4H716.373L716.973 124.1H717.573C719.039 120.5 721.306 117.833 724.373 116.1C727.439 114.3 730.873 113.4 734.673 113.4C737.339 113.4 739.806 113.833 742.073 114.7C744.406 115.5 746.406 116.767 748.073 118.5C749.806 120.233 751.139 122.533 752.073 125.4C753.073 128.2 753.573 131.6 753.573 135.6V168H738.873V138.8C738.873 135.8 738.506 133.3 737.773 131.3C737.106 129.3 736.039 127.833 734.573 126.9C733.106 125.9 731.173 125.4 728.773 125.4C726.239 125.4 724.106 126 722.373 127.2C720.639 128.4 719.306 129.967 718.373 131.9C717.439 133.833 716.973 135.933 716.973 138.2V168H702.273ZM784.947 168.9C781.68 168.9 778.714 168.3 776.047 167.1C773.38 165.833 771.08 164.033 769.147 161.7C767.214 159.3 765.714 156.367 764.647 152.9C763.647 149.433 763.147 145.533 763.147 141.2C763.147 135.333 764.047 130.333 765.847 126.2C767.714 122 770.28 118.833 773.547 116.7C776.814 114.5 780.614 113.4 784.947 113.4C787.68 113.4 790.147 113.833 792.347 114.7C794.547 115.5 796.447 116.667 798.047 118.2C799.647 119.667 800.814 121.4 801.547 123.4H802.147V95.1H816.847V168H802.947L802.347 158.9H801.547C800.48 161.9 798.447 164.333 795.447 166.2C792.514 168 789.014 168.9 784.947 168.9ZM790.247 157C792.914 157 795.114 156.433 796.847 155.3C798.647 154.167 799.98 152.6 800.847 150.6C801.714 148.6 802.147 146.333 802.147 143.8V138.5C802.147 135.9 801.68 133.633 800.747 131.7C799.88 129.7 798.547 128.133 796.747 127C795.014 125.867 792.98 125.3 790.647 125.3C787.847 125.3 785.514 125.933 783.647 127.2C781.847 128.467 780.48 130.3 779.547 132.7C778.614 135.033 778.147 137.867 778.147 141.2C778.147 144.4 778.58 147.2 779.447 149.6C780.314 152 781.647 153.833 783.447 155.1C785.247 156.367 787.514 157 790.247 157ZM28.4 263C22.8 263 18.0333 261.867 14.1 259.6C10.2333 257.333 7.26667 254.133 5.2 250C3.13333 245.867 2.1 241.067 2.1 235.6C2.1 229.8 3.13333 224.8 5.2 220.6C7.33333 216.4 10.3 213.167 14.1 210.9C17.9667 208.567 22.5333 207.4 27.8 207.4C33.9333 207.4 38.9333 208.733 42.8 211.4C46.7333 214.067 49.5667 217.733 51.3 222.4C53.0333 227.067 53.6 232.4 53 238.4H16.5C16.5 241.333 16.9667 243.833 17.9 245.9C18.9 247.9 20.3 249.4 22.1 250.4C23.9 251.4 26 251.9 28.4 251.9C31.2 251.9 33.4667 251.333 35.2 250.2C36.9333 249.067 38.1 247.567 38.7 245.7H52.6C52.0667 249.233 50.7 252.3 48.5 254.9C46.3 257.433 43.4667 259.433 40 260.9C36.6 262.3 32.7333 263 28.4 263ZM16.5 230.7L15.2 229.3H40L38.6 230.7C38.7333 227.9 38.3333 225.633 37.4 223.9C36.5333 222.1 35.2667 220.733 33.6 219.8C32 218.867 30.0667 218.4 27.8 218.4C25.5333 218.4 23.5333 218.9 21.8 219.9C20.1333 220.833 18.8333 222.233 17.9 224.1C17.0333 225.9 16.5667 228.1 16.5 230.7ZM55.1758 262L75.3758 234.5L57.0758 208.4H74.4758L83.9758 223.4L85.1758 225.4H85.6758L86.8758 223.4L96.3758 208.4H113.076L95.2758 234.1L114.976 262H97.5758L86.4758 245.1L85.1758 242.8H84.6758L83.2758 245.1L71.6758 262H55.1758ZM122.39 278.7V208.4H136.39L136.89 217.5H137.69C138.823 214.5 140.857 212.067 143.79 210.2C146.79 208.333 150.29 207.4 154.29 207.4C157.623 207.4 160.623 208.033 163.29 209.3C165.957 210.567 168.257 212.4 170.19 214.8C172.123 217.133 173.59 220.033 174.59 223.5C175.657 226.9 176.19 230.8 176.19 235.2C176.19 241 175.257 246 173.39 250.2C171.59 254.333 169.057 257.5 165.79 259.7C162.523 261.9 158.69 263 154.29 263C151.623 263 149.157 262.6 146.89 261.8C144.69 260.933 142.79 259.733 141.19 258.2C139.59 256.667 138.423 254.933 137.69 253H137.09V278.7H122.39ZM148.69 251.1C151.423 251.1 153.723 250.467 155.59 249.2C157.457 247.867 158.823 246 159.69 243.6C160.623 241.2 161.09 238.4 161.09 235.2C161.09 231.933 160.657 229.133 159.79 226.8C158.923 224.4 157.59 222.567 155.79 221.3C153.99 219.967 151.723 219.3 148.99 219.3C146.39 219.3 144.19 219.9 142.39 221.1C140.59 222.233 139.257 223.8 138.39 225.8C137.523 227.8 137.09 230.067 137.09 232.6V237.9C137.09 240.5 137.557 242.8 138.49 244.8C139.423 246.733 140.757 248.267 142.49 249.4C144.223 250.533 146.29 251.1 148.69 251.1ZM185.964 262V189.1H200.664V262H185.964ZM237.208 262.9C233.141 262.9 229.474 262.3 226.208 261.1C222.941 259.833 220.108 258 217.708 255.6C215.308 253.2 213.474 250.3 212.208 246.9C210.941 243.433 210.308 239.533 210.308 235.2C210.308 229.667 211.374 224.833 213.508 220.7C215.641 216.5 218.708 213.233 222.708 210.9C226.708 208.567 231.541 207.4 237.208 207.4C241.208 207.4 244.841 208.033 248.108 209.3C251.374 210.567 254.174 212.4 256.508 214.8C258.908 217.2 260.741 220.1 262.008 223.5C263.341 226.9 264.008 230.8 264.008 235.2C264.008 240.667 262.941 245.5 260.808 249.7C258.674 253.833 255.608 257.067 251.608 259.4C247.674 261.733 242.874 262.9 237.208 262.9ZM237.108 251C239.508 251 241.608 250.433 243.408 249.3C245.274 248.1 246.674 246.333 247.608 244C248.608 241.667 249.108 238.733 249.108 235.2C249.108 232.533 248.841 230.233 248.308 228.3C247.774 226.3 246.974 224.633 245.908 223.3C244.841 221.967 243.574 221 242.108 220.4C240.641 219.733 239.008 219.4 237.208 219.4C234.808 219.4 232.674 219.967 230.808 221.1C229.008 222.233 227.608 223.967 226.608 226.3C225.608 228.633 225.108 231.6 225.108 235.2C225.108 237.867 225.374 240.2 225.908 242.2C226.508 244.133 227.341 245.767 228.408 247.1C229.474 248.367 230.741 249.333 232.208 250C233.674 250.667 235.308 251 237.108 251ZM273.562 262V208.4H286.862L287.462 217H287.962C289.162 213.533 291.062 211.133 293.662 209.8C296.328 208.4 299.362 207.7 302.762 207.7C303.362 207.7 303.895 207.7 304.362 207.7C304.828 207.7 305.295 207.7 305.762 207.7V221.5C305.428 221.5 304.962 221.5 304.362 221.5C303.762 221.5 303.128 221.5 302.462 221.5C299.195 221.5 296.528 222 294.462 223C292.395 223.933 290.862 225.333 289.862 227.2C288.862 229.067 288.328 231.333 288.262 234V262H273.562ZM332.213 262.9C328.946 262.9 325.979 262.3 323.313 261.1C320.646 259.833 318.346 258.033 316.413 255.7C314.479 253.3 312.979 250.367 311.913 246.9C310.913 243.433 310.413 239.533 310.413 235.2C310.413 229.333 311.313 224.333 313.113 220.2C314.979 216 317.546 212.833 320.813 210.7C324.079 208.5 327.879 207.4 332.213 207.4C334.946 207.4 337.413 207.833 339.613 208.7C341.813 209.5 343.713 210.667 345.313 212.2C346.913 213.667 348.079 215.4 348.813 217.4H349.613L350.213 208.4H364.113V262H350.213L349.613 252.9H348.813C347.746 255.9 345.713 258.333 342.713 260.2C339.779 262 336.279 262.9 332.213 262.9ZM337.513 251C340.179 251 342.379 250.433 344.113 249.3C345.913 248.167 347.246 246.6 348.113 244.6C348.979 242.6 349.413 240.333 349.413 237.8V232.5C349.413 229.9 348.946 227.633 348.013 225.7C347.146 223.7 345.813 222.133 344.013 221C342.279 219.867 340.246 219.3 337.913 219.3C335.113 219.3 332.779 219.933 330.913 221.2C329.113 222.467 327.746 224.3 326.813 226.7C325.879 229.033 325.413 231.867 325.413 235.2C325.413 238.4 325.846 241.2 326.713 243.6C327.579 246 328.913 247.833 330.713 249.1C332.513 250.367 334.779 251 337.513 251ZM395.587 262C391.92 262 389.087 261.467 387.087 260.4C385.087 259.333 383.687 257.833 382.887 255.9C382.153 253.9 381.787 251.567 381.787 248.9V220.2H372.187V208.4H381.787V193.8L396.487 192.4V208.4H430.987V262H416.287V220.2H396.487V246.1C396.487 247.7 396.82 248.767 397.487 249.3C398.22 249.833 399.287 250.1 400.687 250.1H407.287V262H395.587ZM423.687 202.1C421.42 202.1 419.553 201.5 418.087 200.3C416.62 199.1 415.887 197.433 415.887 195.3C415.887 193.1 416.62 191.4 418.087 190.2C419.553 189 421.42 188.4 423.687 188.4C426.02 188.4 427.92 189 429.387 190.2C430.853 191.4 431.587 193.1 431.587 195.3C431.587 197.433 430.853 199.1 429.387 200.3C427.92 201.5 426.02 202.1 423.687 202.1ZM467.481 262.9C463.415 262.9 459.748 262.3 456.481 261.1C453.215 259.833 450.381 258 447.981 255.6C445.581 253.2 443.748 250.3 442.481 246.9C441.215 243.433 440.581 239.533 440.581 235.2C440.581 229.667 441.648 224.833 443.781 220.7C445.915 216.5 448.981 213.233 452.981 210.9C456.981 208.567 461.815 207.4 467.481 207.4C471.481 207.4 475.115 208.033 478.381 209.3C481.648 210.567 484.448 212.4 486.781 214.8C489.181 217.2 491.015 220.1 492.281 223.5C493.615 226.9 494.281 230.8 494.281 235.2C494.281 240.667 493.215 245.5 491.081 249.7C488.948 253.833 485.881 257.067 481.881 259.4C477.948 261.733 473.148 262.9 467.481 262.9ZM467.381 251C469.781 251 471.881 250.433 473.681 249.3C475.548 248.1 476.948 246.333 477.881 244C478.881 241.667 479.381 238.733 479.381 235.2C479.381 232.533 479.115 230.233 478.581 228.3C478.048 226.3 477.248 224.633 476.181 223.3C475.115 221.967 473.848 221 472.381 220.4C470.915 219.733 469.281 219.4 467.481 219.4C465.081 219.4 462.948 219.967 461.081 221.1C459.281 222.233 457.881 223.967 456.881 226.3C455.881 228.633 455.381 231.6 455.381 235.2C455.381 237.867 455.648 240.2 456.181 242.2C456.781 244.133 457.615 245.767 458.681 247.1C459.748 248.367 461.015 249.333 462.481 250C463.948 250.667 465.581 251 467.381 251ZM503.835 262V208.4H517.935L518.535 218.1H519.135C520.602 214.5 522.868 211.833 525.935 210.1C529.002 208.3 532.435 207.4 536.235 207.4C538.902 207.4 541.368 207.833 543.635 208.7C545.968 209.5 547.968 210.767 549.635 212.5C551.368 214.233 552.702 216.533 553.635 219.4C554.635 222.2 555.135 225.6 555.135 229.6V262H540.435V232.8C540.435 229.8 540.068 227.3 539.335 225.3C538.668 223.3 537.602 221.833 536.135 220.9C534.668 219.9 532.735 219.4 530.335 219.4C527.802 219.4 525.668 220 523.935 221.2C522.202 222.4 520.868 223.967 519.935 225.9C519.002 227.833 518.535 229.933 518.535 232.2V262H503.835Z" fill="black"/>
</svg>
